<svg xmlns="http://www.w3.org/2000/svg">
  <defs>
    <!-- Sun Icon -->
    <symbol id="sun-icon" viewBox="0 0 24 24" fill="none" stroke="currentColor" stroke-width="2" stroke-linecap="round" stroke-linejoin="round">
      <circle cx="12" cy="12" r="4"></circle>
      <path d="M12 2v2"></path>
      <path d="M12 20v2"></path>
      <path d="m4.93 4.93 1.41 1.41"></path>
      <path d="m17.66 17.66 1.41 1.41"></path>
      <path d="M2 12h2"></path>
      <path d="M20 12h2"></path>
      <path d="m6.34 17.66-1.41 1.41"></path>
      <path d="m19.07 4.93-1.41 1.41"></path>
    </symbol>

    <!-- Moon Icon -->
    <symbol id="moon-icon" viewBox="0 0 24 24" fill="none" stroke="currentColor" stroke-width="2" stroke-linecap="round" stroke-linejoin="round">
      <path d="M12 3a6 6 0 0 0 9 9 9 9 0 1 1-9-9Z"></path>
    </symbol>

    <!-- Menu Icon -->
    <symbol id="menu-icon" viewBox="0 0 24 24" fill="none" stroke="currentColor" stroke-width="2" stroke-linecap="round" stroke-linejoin="round">
      <path d="M4 6h16"></path>
      <path d="M4 12h16"></path>
      <path d="M4 18h16"></path>
    </symbol>

    <!-- Close Icon -->
    <symbol id="close-icon" viewBox="0 0 24 24" fill="none" stroke="currentColor" stroke-width="2" stroke-linecap="round" stroke-linejoin="round">
      <path d="M18 6L6 18"></path>
      <path d="M6 6l12 12"></path>
    </symbol>

    <!-- Send Icon -->
    <symbol id="send-icon" viewBox="0 0 24 24" fill="none" stroke="currentColor" stroke-width="2" stroke-linecap="round" stroke-linejoin="round">
      <path d="M22 2L11 13"></path>
      <path d="M22 2L15 22L11 13L2 9L22 2Z"></path>
    </symbol>

    <!-- Email Icon -->
    <symbol id="email-icon" viewBox="0 0 24 24" fill="none" stroke="currentColor" stroke-width="2" stroke-linecap="round" stroke-linejoin="round">
      <rect x="2" y="4" width="20" height="16" rx="2"></rect>
      <path d="M22 6L12 13L2 6"></path>
    </symbol>

    <!-- User Icon -->
    <symbol id="user-icon" viewBox="0 0 24 24" fill="none" stroke="currentColor" stroke-width="2" stroke-linecap="round" stroke-linejoin="round">
      <path d="M20 21v-2a4 4 0 0 0-4-4H8a4 4 0 0 0-4 4v2"></path>
      <circle cx="12" cy="7" r="4"></circle>
    </symbol>

    <!-- Chat Icon -->
    <symbol id="chat-icon" viewBox="0 0 24 24" fill="none" stroke="currentColor" stroke-width="2" stroke-linecap="round" stroke-linejoin="round">
      <path d="M21 15a4 4 0 0 1-4 4H7l-4 4V7a4 4 0 0 1 4-4h10a4 4 0 0 1 4 4z"></path>
    </symbol>

    <!-- Download Icon -->
    <symbol id="download-icon" viewBox="0 0 24 24" fill="none" stroke="currentColor" stroke-width="2" stroke-linecap="round" stroke-linejoin="round">
      <path d="M21 15v4a2 2 0 0 1-2 2H5a2 2 0 0 1-2-2v-4"></path>
      <polyline points="7 10 12 15 17 10"></polyline>
      <line x1="12" x2="12" y1="15" y2="3"></line>
    </symbol>

    <!-- GitHub Icon -->
    <symbol id="github-icon" viewBox="0 0 24 24" fill="none" stroke="currentColor" stroke-width="2" stroke-linecap="round" stroke-linejoin="round">
      <path d="M9 19c-4.3 1.4 -4.3 -2.5 -6 -3m12 5v-3.5c0 -1 .1 -1.4 -.5 -2c2.8 -.3 5.5 -1.4 5.5 -6a4.6 4.6 0 0 0 -1.3 -3.2a4.2 4.2 0 0 0 -.1 -3.2s-1.1 -.3 -3.5 1.3a12.3 12.3 0 0 0 -6.2 0c-2.4 -1.6 -3.5 -1.3 -3.5 -1.3a4.2 4.2 0 0 0 -.1 3.2a4.6 4.6 0 0 0 -1.3 3.2c0 4.6 2.7 5.7 5.5 6c-.6 .6 -.6 1.2 -.5 2v3.5"></path>
    </symbol>

    <!-- LinkedIn Icon -->
    <symbol id="linkedin-icon" viewBox="0 0 24 24" fill="none" stroke="currentColor" stroke-width="2" stroke-linecap="round" stroke-linejoin="round">
      <path d="M16 8a6 6 0 0 1 6 6v7h-4v-7a2 2 0 0 0-2-2 2 2 0 0 0-2 2v7h-4v-7a6 6 0 0 1 6-6z"></path>
      <rect x="2" y="9" width="4" height="12"></rect>
      <circle cx="4" cy="4" r="2"></circle>
    </symbol>

    <!-- Terminal Icon -->
    <symbol id="terminal-icon" viewBox="0 0 30 24" fill="none" stroke="currentColor" stroke-width="2" stroke-linecap="round" stroke-linejoin="round">
      <polyline points="4 17 10 11 4 5"></polyline>
      <line x1="12" x2="20" y1="19" y2="19"></line>
    </symbol>

    <!-- Location Icon -->
    <symbol id="location-icon" viewBox="0 0 24 24" fill="none" stroke="currentColor" stroke-width="2" stroke-linecap="round" stroke-linejoin="round">
      <path d="M20 10c0 4.993-5.539 10.193-7.399 11.799a1 1 0 0 1-1.202 0C9.539 20.193 4 14.993 4 10a8 8 0 0 1 16 0z"></path>
      <circle cx="12" cy="10" r="3"></circle>
    </symbol>

    <!-- Go arrow -->
    <symbol id="go-arrow-icon" viewBox="0 0 24 24" fill="none" stroke="currentColor" stroke-width="2" stroke-linecap="round" stroke-linejoin="round">
      <path d="M7 7h10v10"></path>
      <path d="M7 17 17 7"></path>
    </symbol>

    <!-- Loading icon -->
    <symbol id="loading-icon" viewBox="0 0 24 24" fill="none">
      <circle className="opacity-25" cx="12" cy="12" r="10" stroke="currentColor" strokeWidth="4"/>
      <path className="opacity-75" fill="currentColor" d="M4 12a8 8 0 018-8v4a4 4 0 00-4 4H4z" />
    </symbol>

    <!-- Search Icon -->
    <symbol id="search-icon" viewBox="0 0 24 24" fill="none" stroke="currentColor" stroke-width="2" stroke-linecap="round" stroke-linejoin="round">
      <circle cx="11" cy="11" r="8"></circle>
      <path d="m21 21-4.35-4.35"></path>
    </symbol>

    <!-- Calendar Icon -->
    <symbol id="calendar-icon" viewBox="0 0 24 24" fill="none" stroke="currentColor" stroke-width="2" stroke-linecap="round" stroke-linejoin="round">
      <rect x="3" y="4" width="18" height="18" rx="2"></rect>
      <path d="M16 2v4"></path>
      <path d="M8 2v4"></path>
      <path d="M3 10h18"></path>
    </symbol>

    <!-- Continuos integration icon -->
    <symbol id="continuous_integration-icon" viewBox="0 0 24 24" fill="none" stroke="currentColor" stroke-width="2" stroke-linecap="round" stroke-linejoin="round">
      <path d="M15 3.62172V12.1336L11.5 15L6.075 13.025V14.9825L3.00375 10.9713L11.955 11.6704V4.00624L15 3.62172ZM12.0163 4.04994L6.99375 1V3.00125L2.3825 4.35581L1 6.12984V10.1586L2.9775 11.0325V5.86767L12.0163 4.04994Z" />
    </symbol>
  </defs>
</svg>